<svg width="134" height="28" viewBox="0 0 134 28" fill="none" xmlns="http://www.w3.org/2000/svg">
<path d="M34.4297 9.48438L37.9277 18.5165H40.3777L36.8803 9.48438H34.4297Z" fill="#FED702"/>
<path d="M28 18.5175H30.4499L33.948 9.48535H31.4974L28 18.5175Z" fill="#FED702"/>
<path d="M80.1753 9.48438H82.956L79.3804 14.0004L82.956 18.5165H80.1753L77.9897 15.7563L75.8041 18.5165H73.0234L76.5991 14.0004L73.0234 9.48438H75.8041L77.9897 12.2446L80.1753 9.48438Z" fill="#FED702"/>
<path fill-rule="evenodd" clip-rule="evenodd" d="M52.0057 9.48438H44.9609V18.5165H47.0078V15.3585H52.0057C53.6008 15.3585 54.8935 14.0439 54.8935 12.4217C54.8935 10.7989 53.6002 9.48438 52.0057 9.48438ZM52.0057 13.2763H47.0078V11.5665H52.0057C52.4699 11.5665 52.846 11.949 52.846 12.4217C52.8466 12.8931 52.4699 13.2763 52.0057 13.2763Z" fill="#FED702"/>
<path fill-rule="evenodd" clip-rule="evenodd" d="M69.0843 12.4759C69.0553 14.0927 67.691 15.3578 66.1011 15.3578L61.1992 15.3585V15.6674C61.1992 16.0913 61.5372 16.435 61.9541 16.435H68.6865L67.9461 18.5165H61.3024C60.115 18.5165 59.1523 17.5376 59.1523 16.33V11.2683C59.1523 10.2834 59.9381 9.48438 60.9066 9.48438H66.1971C67.81 9.48438 69.1138 10.829 69.0843 12.4759ZM61.8258 11.5659C61.48 11.5659 61.1992 11.8514 61.1992 12.2031V13.2756H66.1971C66.6764 13.2756 67.0624 12.8677 67.0367 12.3749C67.0131 11.9122 66.6047 11.5659 66.1497 11.5659H61.8258Z" fill="#FED702"/>
<path d="M130.5 9.5934H132.5V18.4862H130.5V9.5934Z" fill="url(#paint0_linear_31396_112177)"/>
<path d="M130.5 8.65057V6.69922H132.5V8.65057H130.5Z" fill="url(#paint1_linear_31396_112177)"/>
<path d="M123.556 9.19922L119 9.19966V18.4992H121V11.1607L123.781 11.1602C124.217 11.1602 124.529 11.2608 124.717 11.4619C124.906 11.663 125 11.9899 125 12.4424V18.4988H127V12.7252C127 11.4556 126.7 10.5254 126.099 9.93459C125.805 9.65804 125.475 9.46948 125.11 9.36892C124.757 9.25579 124.239 9.19922 123.556 9.19922Z" fill="url(#paint2_linear_31396_112177)"/>
<path d="M103.5 9.19922H111.676C112.51 9.19922 113.144 9.26207 113.579 9.38778C114.014 9.51349 114.381 9.73349 114.679 10.0478C115.226 10.6512 115.5 11.4809 115.5 12.5368V18.4992H113.492V12.9328C113.492 12.4928 113.473 12.1848 113.436 12.0088C113.399 11.8329 113.312 11.6757 113.175 11.5374C112.914 11.286 112.522 11.1603 112 11.1603H110.499V18.4992H108.5V11.1603H105.5V18.4992H103.5V9.19922Z" fill="url(#paint3_linear_31396_112177)"/>
<path fill-rule="evenodd" clip-rule="evenodd" d="M93.0409 9.19922C91.3615 9.19922 90 10.6103 90 12.3509V15.3476C90 17.0882 91.3615 18.4992 93.0409 18.4992H96.9591C98.6385 18.4992 100 17.0882 100 15.3476V12.3509C100 10.6103 98.6385 9.19922 96.9591 9.19922H93.0409ZM92.0937 12.3509C92.0937 11.8087 92.5178 11.3692 93.0409 11.3692H96.9591C97.4822 11.3692 97.9063 11.8087 97.9063 12.3509V15.3476C97.9063 15.8897 97.4822 16.3292 96.9591 16.3292H93.0409C92.5178 16.3292 92.0937 15.8897 92.0937 15.3476V12.3509Z" fill="url(#paint4_linear_31396_112177)"/>
<path d="M10.9978 18.2687C11.3922 18.2687 11.767 18.1858 12.1086 18.0373C12.121 18.032 12.134 18.0293 12.1457 18.0293C12.2199 18.0293 12.2687 18.1269 12.2088 18.1911C11.9023 18.5167 11.4735 18.72 10.9978 18.72C10.5222 18.72 10.0927 18.5167 9.78683 18.1911C9.71721 18.1169 9.79464 17.9972 9.88705 18.0373C10.2287 18.1858 10.6035 18.2687 10.9978 18.2687Z" fill="#FED702"/>
<path fill-rule="evenodd" clip-rule="evenodd" d="M8.96096 0.429272L8.96811 0.425929C9.63706 0.141754 10.347 0 11.0569 0C11.7695 0 12.482 0.143091 13.1529 0.429272C14.5552 1.02638 15.6524 2.19517 16.1833 3.65617L20.8412 16.965C20.8627 17.0265 20.8822 17.09 20.8959 17.1542C20.9636 17.4671 21 17.7927 21 18.1271C21 19.4309 20.4261 20.5723 19.6048 21.4309C19.5821 21.4543 19.5606 21.4783 19.5398 21.5031C19.3973 21.6736 19.2639 21.8147 19.1142 21.9611L14.0067 26.7867C13.464 27.319 12.795 27.6948 12.0656 27.8766C11.4057 28.0411 10.7173 28.0411 10.0574 27.8766C9.32862 27.6948 8.65902 27.319 8.11632 26.7867L3.00878 21.9611C2.97495 21.9283 2.94241 21.8949 2.91053 21.8615C2.84675 21.7939 2.77843 21.7318 2.70555 21.6742C1.66894 20.8572 1 19.5727 1 18.1264C1 17.4939 1.12819 16.8927 1.3592 16.3471L5.92077 3.66419C6.45242 2.19852 7.55344 1.02638 8.96096 0.429272ZM8.48007 23.5692C8.2777 23.7377 8.2777 24.0546 8.48007 24.2231C9.16854 24.7962 10.0451 25.1399 10.9997 25.1399C11.9543 25.1399 12.8308 24.7962 13.5193 24.2231C13.7217 24.0546 13.7217 23.7377 13.5193 23.5692C12.8308 22.9962 11.9549 22.6525 10.9997 22.6525C10.0444 22.6525 9.16854 22.9962 8.48007 23.5692ZM4.6382 20.4138L7.14869 22.9935C7.26387 23.1112 7.41614 23.1727 7.56971 23.1727C7.69725 23.1727 7.82544 23.1299 7.93086 23.0416C8.79762 22.3195 9.87002 21.9277 11.001 21.9277C12.1319 21.9277 13.2043 22.3202 14.0711 23.0416C14.3027 23.2349 14.6411 23.2101 14.852 22.9935L17.3625 20.4138C17.6006 20.1691 17.5948 19.7646 17.3416 19.5352C15.5873 17.9472 13.3592 17.08 11.0003 17.08C8.64145 17.08 6.41337 17.9472 4.65902 19.5352C4.40589 19.7639 4.39938 20.1685 4.6382 20.4138ZM14.8507 10.1541C14.6398 9.93679 14.3014 9.91205 14.0698 10.1053C13.203 10.8268 12.1306 11.2193 10.999 11.2186C9.86807 11.2186 8.79567 10.8268 7.92891 10.1053C7.69725 9.91272 7.35887 9.93746 7.14804 10.1541L4.63755 12.7337C4.39873 12.9785 4.40524 13.383 4.65837 13.6123C6.41272 15.2004 8.6408 16.0676 10.9997 16.0676C13.3585 16.0676 15.5873 15.2004 17.341 13.6123C17.5941 13.3837 17.6006 12.9791 17.3618 12.7337L14.8507 10.1541Z" fill="#FED702"/>
<defs>
<linearGradient id="paint0_linear_31396_112177" x1="90" y1="12.5992" x2="132.5" y2="12.5992" gradientUnits="userSpaceOnUse">
<stop offset="0.048859" stop-color="#C6F9D4"/>
<stop offset="0.304108" stop-color="#FFFDB3"/>
<stop offset="0.664978" stop-color="#D5ECFA"/>
<stop offset="0.87" stop-color="#FBD7FF"/>
<stop offset="1" stop-color="#F7B8FF"/>
</linearGradient>
<linearGradient id="paint1_linear_31396_112177" x1="90" y1="12.5992" x2="132.5" y2="12.5992" gradientUnits="userSpaceOnUse">
<stop offset="0.048859" stop-color="#C6F9D4"/>
<stop offset="0.304108" stop-color="#FFFDB3"/>
<stop offset="0.664978" stop-color="#D5ECFA"/>
<stop offset="0.87" stop-color="#FBD7FF"/>
<stop offset="1" stop-color="#F7B8FF"/>
</linearGradient>
<linearGradient id="paint2_linear_31396_112177" x1="90" y1="12.5992" x2="132.5" y2="12.5992" gradientUnits="userSpaceOnUse">
<stop offset="0.048859" stop-color="#C6F9D4"/>
<stop offset="0.304108" stop-color="#FFFDB3"/>
<stop offset="0.664978" stop-color="#D5ECFA"/>
<stop offset="0.87" stop-color="#FBD7FF"/>
<stop offset="1" stop-color="#F7B8FF"/>
</linearGradient>
<linearGradient id="paint3_linear_31396_112177" x1="90" y1="12.5992" x2="132.5" y2="12.5992" gradientUnits="userSpaceOnUse">
<stop offset="0.048859" stop-color="#C6F9D4"/>
<stop offset="0.304108" stop-color="#FFFDB3"/>
<stop offset="0.664978" stop-color="#D5ECFA"/>
<stop offset="0.87" stop-color="#FBD7FF"/>
<stop offset="1" stop-color="#F7B8FF"/>
</linearGradient>
<linearGradient id="paint4_linear_31396_112177" x1="90" y1="12.5992" x2="132.5" y2="12.5992" gradientUnits="userSpaceOnUse">
<stop offset="0.048859" stop-color="#C6F9D4"/>
<stop offset="0.304108" stop-color="#FFFDB3"/>
<stop offset="0.664978" stop-color="#D5ECFA"/>
<stop offset="0.87" stop-color="#FBD7FF"/>
<stop offset="1" stop-color="#F7B8FF"/>
</linearGradient>
</defs>
</svg>
